PathFileType	4	(X/Y/Z)	./resultDataOpenSim/trcMotMarkerGrf/sub06/qtm-12-07.trc
DataRate	CameraRate	NumFrames	NumMarkers	Units	OrigDataRate	OrigDataStartFrame	OrigNumFrames
250.000000	250.000000	12	24	m	250.000000	377	502
Frame#	Time	L.Toe.Tip			R.Toe.Tip			L.Ankle.Lat			R.Ankle.Lat			L.Ankle.Med			R.Ankle.Med			L.Heel			R.Heel			L.Knee.Lat			R.Knee.Lat			L.Knee.Med			R.Knee.Med			L.Thigh.Upper			R.Thigh.Upper			L.ASIS			R.ASIS			V.Sacral			L.Acromium			R.Acromium			C7			L.Elbow			R.Elbow			L.Wrist.Lat			R.Wrist.Lat
		X1	Y1	Z1	X2	Y2	Z2	X3	Y3	Z3	X4	Y4	Z4	X5	Y5	Z5	X6	Y6	Z6	X7	Y7	Z7	X8	Y8	Z8	X9	Y9	Z9	X10	Y10	Z10	X11	Y11	Z11	X12	Y12	Z12	X13	Y13	Z13	X14	Y14	Z14	X15	Y15	Z15	X16	Y16	Z16	X17	Y17	Z17	X18	Y18	Z18	X19	Y19	Z19	X20	Y20	Z20	X21	Y21	Z21	X22	Y22	Z22	X23	Y23	Z23	X24	Y24	Z24

377	1.504	1.4774977	0.12984618	-0.095585763	0.81454026	0.034323406	0.086144342	1.3521907	0.10415541	-0.11039355	0.69312158	0.09503182	0.10626323	1.3502036	0.11833573	-0.026765434	0.72175444	0.11046206	0.020806137	1.3037163	0.04263276	-0.062819124	0.63701994	0.092027568	0.045167609	1.237004	0.45299545	-0.10695871	0.89319387	0.43352552	0.13815996	1.225301	0.44230642	0.017464887	0.87372696	0.43351866	0.0071441546	1.058324	0.80093956	-0.14895122	0.98613551	0.78382873	0.18976856	1.1182589	0.84786416	-0.093818588	1.096365	0.83697322	0.15454945	0.91747949	0.91476018	0.01407448	1.0279678	1.3247217	-0.15414628	1.0553299	1.3166877	0.20519594	0.96487957	1.3576174	0.032293358	0.90318745	1.0367939	-0.19527444	1.0915208	1.00529	0.31334402	0.96194065	0.81031633	-0.26206847	1.3330677	1.013	0.24079084
378	1.508	1.4866133	0.13017379	-0.094442109	0.8146918	0.034345437	0.086180218	1.3612755	0.10382433	-0.10905353	0.69433338	0.096400742	0.10680742	1.3591592	0.11818482	-0.025465795	0.72287928	0.11161337	0.021320229	1.3130967	0.041898633	-0.061091811	0.63797973	0.094250708	0.04592101	1.244407	0.45232513	-0.10627799	0.89829786	0.4327396	0.13819137	1.2317034	0.44132401	0.018233971	0.87899565	0.43275973	0.0071197779	1.0659057	0.79980236	-0.14924986	0.99290675	0.78265867	0.18968625	1.1255415	0.84670863	-0.093921148	1.1029373	0.83551887	0.15424824	0.92424301	0.91350891	0.013067366	1.0344119	1.3232146	-0.15466718	1.0617565	1.3153694	0.20480116	0.97132519	1.3562641	0.031796143	0.90941319	1.0355329	-0.19533324	1.0988584	1.0041167	0.31311194	0.96641506	0.80881276	-0.26267382	1.3400245	1.0131291	0.23949817
379	1.512	1.4951278	0.13000078	-0.093180875	0.81487394	0.034348427	0.086208836	1.3697782	0.10318685	-0.10765314	0.69557288	0.097844116	0.10740456	1.3680465	0.117934	-0.024085272	0.72408264	0.11284459	0.021880674	1.3217549	0.041010907	-0.059411252	0.63905215	0.09658038	0.046685377	1.251846	0.4517	-0.10562205	0.9035371	0.43195189	0.13825235	1.2382093	0.44048997	0.018902428	0.88434799	0.43198434	0.0071655761	1.0735076	0.79873966	-0.1495586	0.99981517	0.78149817	0.18965946	1.1328524	0.84556789	-0.094019286	1.109549	0.8340841	0.15393934	0.9313956	0.91213293	0.012499636	1.0408793	1.3217301	-0.15520632	1.0682046	1.3140604	0.20438534	0.97779408	1.3549204	0.031275938	0.91570035	1.0342679	-0.19539901	1.1061209	1.0029373	0.31285193	0.97101333	0.80732414	-0.26326242	1.3469066	1.0131244	0.23823509
380	1.516	1.5030112	0.12934188	-0.091712888	0.81509141	0.034332325	0.086245302	1.3777022	0.10225229	-0.10623116	0.69688709	0.099356871	0.10805605	1.376358	0.11741522	-0.022681826	0.72537745	0.11415477	0.022493359	1.329673	0.039990101	-0.05796761	0.64023793	0.099024015	0.047482835	1.2592852	0.45107368	-0.10498433	0.90891485	0.43115834	0.13834786	1.2448261	0.43979937	0.019477359	0.88978339	0.43118203	0.0072926531	1.0811176	0.797747	-0.14989118	1.0066875	0.78029958	0.18950364	1.1401989	0.84443531	-0.094116313	1.1162422	0.83267985	0.15366819	0.9391266	0.91056464	0.012648814	1.0473742	1.3202701	-0.15576944	1.0746733	1.3127682	0.20394308	0.9842809	1.3535903	0.030734353	0.92203653	1.0330092	-0.19546024	1.1133104	1.0017591	0.31256356	0.9757375	0.80585339	-0.26382877	1.3537136	1.0129879	0.23700071
381	1.52	1.5102873	0.12821987	-0.089988887	0.81534227	0.034309938	0.086304996	1.3850544	0.10103814	-0.10480581	0.69830158	0.10093207	0.10876485	1.3837973	0.11652565	-0.021282606	0.72677663	0.11554073	0.023158171	1.3368565	0.038822372	-0.056760045	0.64154545	0.10158822	0.048327841	1.2667035	0.45040708	-0.10437157	0.91443256	0.43035424	0.13847868	1.2515629	0.43922288	0.019976751	0.8953354	0.43035464	0.0074862179	1.0887283	0.79681968	-0.15026133	1.013482	0.77907017	0.18916979	1.1475798	0.8433091	-0.094218057	1.1230375	0.83131112	0.15344904	0.94723288	0.90888403	0.013303889	1.053896	1.3188406	-0.15636065	1.0811671	1.3115033	0.20346748	0.99078564	1.3522727	0.030174958	0.92842735	1.0317638	-0.1955267	1.1204281	1.0005859	0.31224988	0.98058996	0.80440011	-0.26436882	1.3604559	1.0127169	0.23579314
382	1.524	1.5169912	0.1266647	-0.08801932	0.81561673	0.034295967	0.086396648	1.3918472	0.099561945	-0.10337881	0.69982128	0.10257173	0.10953416	1.3903822	0.11525415	-0.019885034	0.72828543	0.11700076	0.023872132	1.3433417	0.037479516	-0.055672832	0.64298514	0.10427717	0.049222799	1.2740966	0.44967357	-0.10379383	0.92008775	0.42953324	0.13863919	1.2584367	0.43872039	0.020417277	0.90104769	0.42950852	0.0077196604	1.0963384	0.79595614	-0.15067783	1.0202227	0.77781618	0.18867437	1.1549808	0.8421999	-0.094341605	1.1299252	0.82997492	0.1532589	0.95517607	0.90728765	0.013793387	1.0604423	1.3174467	-0.15697958	1.0876969	1.3102743	0.20295479	0.99731282	1.3509639	0.029597361	0.93489344	1.0305317	-0.19562446	1.1274651	0.99941491	0.31191226	0.98557593	0.8029642	-0.264885	1.3671368	1.0123085	0.23461474
383	1.528	1.523133	0.12471368	-0.085868362	0.81590243	0.03429681	0.086522728	1.398094	0.097838309	-0.10193963	0.70144192	0.10428656	0.11035756	1.396188	0.11362185	-0.018488918	0.72991277	0.11853233	0.024633602	1.3491693	0.035931295	-0.054606064	0.64456357	0.10709413	0.050161574	1.2814759	0.44886876	-0.10325028	0.92588121	0.42869143	0.13882674	1.2654572	0.43825351	0.020808092	0.90694087	0.42864809	0.0079723804	1.1039495	0.79514993	-0.15114257	1.0269317	0.77653152	0.18803325	1.1623824	0.84112107	-0.094509922	1.1368897	0.82865923	0.15307405	0.96261899	0.90590163	0.013660668	1.0670119	1.3160898	-0.1576198	1.0942665	1.3090767	0.20240906	1.0038672	1.3496622	0.028996897	0.94144536	1.0293137	-0.19576826	1.1344058	0.99824077	0.31154811	0.99070014	0.80154878	-0.26538117	1.3737457	1.0117659	0.2334724
384	1.532	1.5286998	0.12240535	-0.083611838	0.81619399	0.034308783	0.086682887	1.4038074	0.095878674	-0.10047574	0.70316124	0.10607889	0.1112166	1.4012364	0.11165675	-0.017109282	0.73167488	0.12013329	0.025445977	1.3543664	0.034158176	-0.053531126	0.64628115	0.11004801	0.051138538	1.2888619	0.44801278	-0.10272939	0.93182249	0.42783227	0.13904673	1.2726151	0.43779593	0.021154145	0.91300951	0.42777466	0.0082374215	1.1115623	0.79438398	-0.15164559	1.0336666	0.77523849	0.18731361	1.169797	0.84007473	-0.094723271	1.1439294	0.82734167	0.15289075	0.96965881	0.90470782	0.012989764	1.0736026	1.3147708	-0.15827259	1.1008654	1.3078979	0.20184075	1.010451	1.3483721	0.028368514	0.94807669	1.0281153	-0.1959488	1.1412446	0.99706723	0.31115746	0.99596358	0.80016034	-0.26585557	1.3802735	1.0110929	0.23236868
385	1.536	1.5336786	0.11976392	-0.081299719	0.81649904	0.034322976	0.086873821	1.4089977	0.093689304	-0.09898492	0.70499002	0.10793356	0.11209673	1.4056125	0.1094073	-0.015754499	0.73358542	0.12180494	0.026315446	1.3589432	0.032176269	-0.052473556	0.64813978	0.11315124	0.052150535	1.2962675	0.44714124	-0.10221712	0.93792648	0.4269616	0.13930823	1.2798779	0.43733954	0.021457967	0.91924144	0.42688637	0.0085206911	1.1191776	0.79363777	-0.15217049	1.0405033	0.77397785	0.18663565	1.1773015	0.83905116	-0.094940312	1.1510547	0.82600167	0.1527151	0.97657017	0.90362709	0.012091582	1.0802122	1.3134915	-0.15893426	1.107483	1.3067328	0.20125776	1.0170663	1.3470991	0.027710194	0.95477685	1.0269407	-0.19614888	1.1480033	0.99591335	0.31075101	1.001365	0.79880552	-0.26630331	1.3867226	1.010289	0.23129927
386	1.54	1.5380863	0.11679587	-0.078956759	0.81683361	0.034332293	0.087083565	1.4136728	0.091271385	-0.09748002	0.70695866	0.1098432	0.11300247	1.4095087	0.10693157	-0.014410976	0.73565577	0.12354834	0.027241509	1.3628726	0.030070869	-0.051501546	0.6501623	0.11640191	0.053188855	1.303686	0.44629023	-0.10170439	0.94420629	0.42607771	0.13961829	1.2871973	0.43689231	0.021718044	0.92562981	0.42597497	0.0088355328	1.1268003	0.79289949	-0.1527018	1.0474647	0.77275508	0.18610954	1.1849698	0.83804485	-0.095121598	1.1582665	0.82464751	0.15253945	0.98360281	0.90259199	0.011239521	1.0868432	1.3122516	-0.15960639	1.1141216	1.3055836	0.20065916	1.0237172	1.3458438	0.027028352	0.96153712	1.0257907	-0.19636275	1.1547179	0.99480145	0.31034379	1.0068999	0.79748716	-0.26672327	1.3931015	1.0093526	0.23025928
387	1.544	1.5419802	0.11350723	-0.076595695	0.81720956	0.034334033	0.087295622	1.4178422	0.088627024	-0.095984667	0.70910493	0.11183287	0.11395743	1.4130907	0.10426184	-0.013064472	0.73790617	0.12535828	0.028213165	1.3660758	0.028023237	-0.050711655	0.65239608	0.11977793	0.054234988	1.3110918	0.44548151	-0.10119173	0.9506705	0.42516995	0.13998403	1.2945292	0.43646649	0.021929223	0.93217518	0.42502318	0.009198873	1.1344363	0.79217004	-0.15322019	1.0545177	0.77153198	0.18578832	1.1927755	0.83706658	-0.095286289	1.1655479	0.82331992	0.1523372	0.99096632	0.90155281	0.010663848	1.0935015	1.3110496	-0.16029019	1.1207897	1.3044525	0.20003897	1.0304023	1.344601	0.026336002	0.96835232	1.0246643	-0.19659653	1.1613911	0.9937291	0.30993375	1.0125625	0.79620549	-0.26711891	1.3994166	1.0082841	0.22924674
388	1.548	1.5454475	0.10989295	-0.074217223	0.81762444	0.034325875	0.087510362	1.4215287	0.085773175	-0.094530734	0.71144437	0.11393451	0.11498243	1.4164107	0.10140024	-0.011719156	0.74036674	0.12722363	0.029215768	1.3684887	0.026274594	-0.050151669	0.65488644	0.12325933	0.055269166	1.3184492	0.44471572	-0.10068692	0.95732602	0.42422586	0.1404188	1.3018487	0.43605951	0.022088663	0.93888916	0.42400809	0.0096318083	1.1420934	0.79145245	-0.15370089	1.0616284	0.77027677	0.18560925	1.2006397	0.83612845	-0.095485079	1.1728816	0.82205421	0.15208869	0.9987884	0.90045811	0.010546007	1.1001918	1.3098852	-0.16098371	1.1274911	1.3033401	0.19939179	1.0371095	1.3433599	0.025640271	0.97522581	1.0235607	-0.19685785	1.1679719	0.9926628	0.30949568	1.0183559	0.79496139	-0.26749478	1.4056722	1.0070845	0.2282621
